<svg xmlns="http://www.w3.org/2000/svg" viewBox="0 0 320 200">
  <defs>
    <linearGradient id="bf" x1="0" y1="0" x2="320" y2="200" gradientUnits="userSpaceOnUse">
      <stop offset="0%" stop-color="#1e73ff"/>
      <stop offset="100%" stop-color="#0052cc"/>
    </linearGradient>
  </defs>
  <rect width="320" height="200" rx="20" fill="#0f172a"/>
  <g transform="translate(110 28)">
    <rect x="0" y="0" width="100" height="100" rx="20" fill="none" stroke="url(#bf)" stroke-width="6"/>
    <path d="M28 22h32a16 16 0 0 1 8.8 29.4A17 17 0 0 1 56 82H28V22Zm12 11v15h18a7.5 7.5 0 0 0 0-15H40Zm0 26v15h22a7.5 7.5 0 0 0 0-15H40Z" fill="url(#bf)"/>
  </g>
  <text x="160" y="158" text-anchor="middle" font-family="Inter, system-ui, sans-serif" font-weight="600" font-size="20" letter-spacing="6" fill="#ffffff">BLUEFRAME</text>
  <line x1="100" y1="170" x2="220" y2="170" stroke="url(#bf)" stroke-width="2" stroke-linecap="round"/>
  <text x="160" y="188" text-anchor="middle" font-family="Inter, system-ui, sans-serif" font-weight="500" font-size="11" letter-spacing="9" fill="#94a3b8">DIGITAL</text>
</svg>
